<svg width="100%" height="100%" viewBox="0 0 110 110" fill="none" xmlns="http://www.w3.org/2000/svg">
<path d="M45 75C36.2326 74.3816 27.9549 72.4914 21.1969 69.5645C14.439 66.6376 9.49926 62.8034 6.99247 58.5388C4.48567 54.2743 4.52249 49.7678 7.09835 45.5802C9.67422 41.3925 14.6754 37.7087 21.4795 34.9871C28.2836 32.2654 36.5901 30.6262 45.3655 30.2733C54.1408 29.9205 62.9975 30.8696 70.8332 33.0025C78.669 35.1355 85.1378 38.3581 89.4348 42.2694C93.7318 46.1806 95.6671 50.6078 95 55" stroke="url(#paint0_linear_1_8)" stroke-width="8" stroke-linecap="round"/>
<path d="M44 60L67 75L44 90V60Z" fill="url(#paint1_linear_1_8)"/>
<defs>
<linearGradient id="paint0_linear_1_8" x1="25" y1="70" x2="53.5" y2="22.5" gradientUnits="userSpaceOnUse">
<stop stop-color="#E0E0E0"/>
<stop offset="0.520671" stop-color="#323030" stop-opacity="0.558378"/>
<stop offset="0.973958"/>
</linearGradient>
<linearGradient id="paint1_linear_1_8" x1="55.5" y1="60" x2="55.5" y2="90" gradientUnits="userSpaceOnUse">
<stop stop-color="white"/>
<stop offset="0.526042" stop-color="#D9D9D9" stop-opacity="0.947917"/>
<stop offset="0.921875" stop-color="#D1CBCB" stop-opacity="0.11"/>
</linearGradient>
</defs>
</svg>
